<?xml version="1.0" encoding="UTF-8" standalone="no"?>
<!-- Created with Inkscape (http://www.inkscape.org/) -->

<svg
   xmlns:dc="http://purl.org/dc/elements/1.1/"
   xmlns:cc="http://creativecommons.org/ns#"
   xmlns:rdf="http://www.w3.org/1999/02/22-rdf-syntax-ns#"
   xmlns:svg="http://www.w3.org/2000/svg"
   xmlns="http://www.w3.org/2000/svg"
   xmlns:sodipodi="http://sodipodi.sourceforge.net/DTD/sodipodi-0.dtd"
   xmlns:inkscape="http://www.inkscape.org/namespaces/inkscape"
   width="80"
   height="50"
   viewBox="0 0 80 50"
   id="svg2"
   version="1.1"
   inkscape:version="0.91 r13725"
   sodipodi:docname="connecting2.svg">
  <defs
     id="defs4" />
  <sodipodi:namedview
     id="base"
     pagecolor="#ffffff"
     bordercolor="#666666"
     borderopacity="1.0"
     inkscape:pageopacity="0.0"
     inkscape:pageshadow="2"
     inkscape:zoom="7.9195959"
     inkscape:cx="84.113423"
     inkscape:cy="26.970175"
     inkscape:document-units="px"
     inkscape:current-layer="layer1"
     showgrid="false"
     inkscape:window-width="1920"
     inkscape:window-height="1054"
     inkscape:window-x="1920"
     inkscape:window-y="24"
     inkscape:window-maximized="1"
     units="px"
     showguides="true"
     inkscape:guide-bbox="true" />
  <metadata
     id="metadata7">
    <rdf:RDF>
      <cc:Work
         rdf:about="">
        <dc:format>image/svg+xml</dc:format>
        <dc:type
           rdf:resource="http://purl.org/dc/dcmitype/StillImage" />
        <dc:title />
      </cc:Work>
    </rdf:RDF>
  </metadata>
  <g
     inkscape:label="Layer 1"
     inkscape:groupmode="layer"
     id="layer1"
     transform="translate(0,-1002.3622)">
    <g
       transform="translate(2.8547873e-7,988.0911)"
       inkscape:label="Layer 1"
       id="layer1-5">
      <rect
         ry="6.0864224"
         y="19.955412"
         x="0.6826973"
         height="38.452801"
         width="78.634605"
         id="rect4399"
         style="fill:#f9f9f9;fill-opacity:0.72701153;stroke:#e6e6e6;stroke-width:0.91084433;stroke-linecap:butt;stroke-linejoin:miter;stroke-miterlimit:4;stroke-dasharray:none;stroke-opacity:1" />
      <text
         transform="scale(0.89165236,1.1215133)"
         sodipodi:linespacing="100%"
         id="text3440"
         y="47.536331"
         x="5.7742138"
         style="font-style:normal;font-variant:normal;font-weight:bold;font-stretch:normal;font-size:33.36177444px;line-height:100%;font-family:sans-serif;-inkscape-font-specification:'sans-serif, Bold';text-align:start;letter-spacing:0px;word-spacing:0px;writing-mode:lr-tb;text-anchor:start;fill:#999999;fill-opacity:1;stroke:none;stroke-width:1;stroke-linecap:butt;stroke-linejoin:miter;stroke-miterlimit:4;stroke-dasharray:none;stroke-opacity:1"
         xml:space="preserve"><tspan
           y="47.536331"
           x="5.7742138"
           id="tspan3442"
           sodipodi:role="line">VPN</tspan></text>
    </g>
    <path
       style="fill:#000000;fill-opacity:1"
       d="m 30.928892,25.408206 0,-13.58203 5.713675,0.04455 c 5.581909,0.04352 5.734059,0.05132 6.597559,0.338156 1.89122,0.628221 3.01612,1.440252 3.969226,2.865266 1.156033,1.728412 1.650362,4.200323 1.389837,6.949921 -0.296926,3.133757 -1.658136,5.389403 -3.942074,6.532371 -1.529448,0.765392 -2.097768,0.865265 -5.299763,0.931345 l -2.872621,0.05928 0,4.721585 0,4.721583 -2.77792,0 -2.777919,0 0,-13.58203 z m 10.318992,-1.260758 c 1.19074,-0.593371 1.704397,-1.608344 1.722235,-3.403093 0.01447,-1.455676 -0.260778,-2.305843 -0.977964,-3.020684 -0.728798,-0.726415 -1.212703,-0.853364 -3.518686,-0.923106 l -1.988738,-0.06015 0,3.864437 0,3.864437 2.058647,0 c 1.953313,0 2.091694,-0.01647 2.704506,-0.321845 z"
       id="path3600"
       inkscape:connector-curvature="0"
       transform="translate(0,1002.3622)" />
  </g>
</svg>
